<?xml version="1.0"?>
<svg width="1175" height="1280" xmlns="http://www.w3.org/2000/svg" xmlns:svg="http://www.w3.org/2000/svg" preserveAspectRatio="xMidYMid meet" version="1.0">
 <metadata>Created by potrace 1.15, written by Peter Selinger 2001-2017</metadata>
 <g class="layer">
  <title>Layer 1</title>
  <g fill="#000000" id="svg_1" transform="matrix(0.1 0 0 -0.1 0 0)">
   <path d="m1968,-667c-16,-4 -16,-6 -1,-29c15,-24 15,-27 -6,-65c-12,-21 -19,-43 -16,-49c3,-5 -1,-10 -9,-10c-11,0 -16,-10 -16,-33c0,-33 -1,-34 -57,-44l-58,-11l45,0c25,0 51,0 58,-1c14,-1 17,-31 2,-31c-5,0 -10,-3 -10,-7c0,-5 33,-8 73,-7c60,0 79,4 106,23c18,13 30,29 28,35c-3,7 26,48 64,91c38,44 69,84 69,89c0,4 -33,-27 -72,-69l-73,-78l-11,54c-13,66 -36,112 -66,133c-12,9 -25,15 -28,15c-3,-1 -13,-3 -22,-6z" fill="#aaaaff" id="svg_2"/>
   <path d="m4062,-843c-27,-32 -31,-67 -18,-144c7,-43 12,-80 10,-82c-2,-2 -24,15 -50,38c-26,22 -50,41 -55,41c-24,0 -11,-23 52,-90c121,-130 134,-144 152,-170c13,-18 15,-19 8,-4c-6,12 -8,24 -4,27c11,12 -7,54 -42,95c-40,45 -37,56 4,19c15,-13 71,-43 126,-66c135,-58 143,-60 55,-12c-83,45 -96,58 -111,113c-5,21 -18,42 -28,48c-13,6 -17,17 -14,30c4,16 -60,170 -72,170c-1,0 -7,-6 -13,-13z" fill="#aaaaff" id="svg_3"/>
   <path d="m3423,-915c-39,-17 -106,-85 -123,-125c-16,-39 -38,-38 -81,6c-39,41 -78,64 -109,64c-32,0 -24,-25 35,-105c30,-40 55,-84 55,-97c1,-40 52,-123 79,-126c22,-4 23,-2 16,35c-23,108 6,138 40,41c17,-50 23,-58 45,-58c41,1 59,22 66,79c4,42 2,57 -12,72c-14,15 -15,24 -6,42c39,77 72,163 68,174c-7,17 -32,16 -73,-2z" fill="#aaaaff" id="svg_4"/>
   <path d="m5742,-1095c-25,-32 -37,-111 -23,-160c6,-21 8,-42 5,-47c-3,-4 -31,-8 -62,-8c-40,0 -72,-7 -102,-22c-64,-32 -60,-53 15,-83c33,-14 64,-24 70,-23c5,1 25,-12 44,-30c18,-18 42,-32 53,-32c12,0 23,-11 29,-30c6,-16 15,-30 20,-30c12,0 11,17 -1,25c-17,10 -11,33 10,40c24,8 21,36 -9,86c-25,41 -26,50 -4,42c12,-5 15,-2 10,10c-8,21 4,21 57,2c43,-15 76,-6 76,20c0,16 9,19 49,15c14,-1 21,2 17,9c-4,6 -18,11 -31,11c-17,0 -32,11 -47,35c-13,19 -35,41 -50,47c-15,7 -24,16 -22,20c6,9 -65,128 -77,128c-4,0 -16,-11 -27,-25z" fill="#aaaaff" id="svg_5"/>
   <path d="m4435,-1265c43,-27 55,-30 55,-16c0,8 -71,41 -88,41c-4,0 11,-12 33,-25z" fill="#aaaaff" id="svg_6"/>
   <path d="m3016,-1387c-9,-26 -16,-55 -16,-66c0,-18 -2,-19 -17,-5c-29,25 -80,48 -108,48c-14,0 -25,-2 -25,-4c0,-19 42,-96 52,-96c7,0 14,-10 14,-22c6,-98 6,-97 29,-86c13,6 28,27 35,49c15,45 26,49 42,14c14,-32 42,-35 33,-4c-4,12 -7,66 -6,120c0,55 -3,99 -8,99c-5,0 -16,-21 -25,-47z" fill="#aaaaff" id="svg_7"/>
   <path d="m4782,-1453c-25,-26 -42,-69 -42,-103c0,-13 -1,-24 -2,-24c-2,0 -25,11 -52,25c-27,14 -65,25 -84,25l-35,0l39,-35c21,-19 45,-34 52,-35c6,0 12,-8 12,-18c0,-11 9,-27 21,-38c11,-10 18,-26 16,-36c-3,-10 -1,-18 4,-18c5,0 9,5 9,10c0,6 12,10 26,10c24,0 26,3 21,29c-7,35 12,47 40,26c24,-19 58,-19 74,1c7,8 21,13 31,11c10,-3 21,-1 24,4c3,5 -6,9 -19,9c-19,0 -28,8 -36,30c-9,26 -20,34 -42,32c-4,-1 -10,23 -14,53c-3,30 -10,57 -14,60c-5,2 -17,-6 -29,-18z" fill="#aaaaff" id="svg_8"/>
   <path d="m4270,-1469c0,-6 4,-13 10,-16c6,-3 7,1 4,9c-7,18 -14,21 -14,7z" fill="#aaaaff" id="svg_9"/>
   <path d="m1574,-1870c2,-33 -1,-63 -6,-66c-4,-3 -8,-18 -8,-35c0,-20 -5,-29 -16,-29c-8,0 -12,-5 -9,-10c4,-6 11,-8 16,-4c6,3 19,-3 30,-15c19,-20 21,-20 44,-5c17,11 25,12 25,5c0,-7 4,-10 9,-6c5,3 12,-4 16,-15c5,-15 11,-18 23,-11c9,4 23,6 31,3c9,-3 11,0 6,7c-4,7 0,20 8,29c9,9 17,24 19,32c2,8 5,17 8,20c13,12 60,79 60,85c0,12 -64,-28 -107,-68c-36,-33 -46,-38 -54,-26c-5,8 -9,20 -9,27c0,21 -46,106 -68,125c-20,18 -20,18 -18,-43z" fill="#aaaaff" id="svg_10"/>
   <path d="m5130,-2003c-35,-18 -89,-93 -102,-143c-7,-24 -15,-44 -18,-44c-3,0 -27,16 -54,35c-53,38 -69,43 -64,21c4,-19 198,-219 205,-212c3,3 -4,21 -16,41l-21,37l37,-31c21,-17 43,-31 49,-31c18,0 34,25 33,51c-1,13 -2,82 -2,153c-1,76 -6,131 -12,132c-5,2 -21,-2 -35,-9z" fill="#aaaaff" id="svg_11"/>
   <path d="m3866,-2243c-9,-23 -16,-48 -16,-55c0,-7 -9,-12 -20,-12c-12,0 -26,-12 -35,-30c-9,-18 -23,-30 -35,-30c-11,0 -20,-5 -20,-11c0,-6 6,-9 13,-6c6,2 20,-3 30,-12c17,-14 21,-14 49,2c36,21 56,10 39,-21c-17,-32 -13,-60 10,-67c12,-4 18,-12 15,-21c-3,-7 -1,-16 4,-19c6,-4 10,5 10,19c0,16 9,32 25,42c14,9 25,26 25,38c1,15 14,28 50,45c28,13 50,28 50,32c0,27 -84,36 -132,15c-16,-7 -17,-3 -12,37c13,94 -20,131 -50,54z" fill="#aaaaff" id="svg_12"/>
   <path d="m2680,-2255c-5,-14 -11,-58 -14,-98c-2,-39 -9,-85 -15,-101c-7,-17 -11,-46 -9,-65c2,-28 8,-37 24,-39c17,-2 30,10 57,53c38,61 47,57 47,-19c0,-60 22,-86 71,-86c56,0 104,46 95,91c-5,26 -3,30 10,25c18,-7 84,58 111,108c15,28 14,31 -7,48c-41,33 -172,14 -236,-34c-16,-12 -26,-18 -21,-13c4,5 1,15 -7,24c-7,9 -16,31 -19,48c-14,74 -67,110 -87,58z" fill="#aaaaff" id="svg_13"/>
   <path d="m4287,-2302c3,-16 -7,-35 -35,-63c-21,-22 -41,-48 -45,-57c-5,-13 -18,-18 -49,-19c-42,-2 -43,-2 -9,-8c31,-5 57,-31 32,-31c-6,0 -11,-5 -11,-11c0,-5 12,-9 28,-8c15,1 38,1 51,1c24,-2 24,-2 5,-23l-18,-20l49,20c28,11 75,32 105,46c30,15 65,31 79,36c13,5 21,12 18,16c-4,3 -38,-5 -77,-17c-39,-12 -73,-20 -76,-18c-2,3 0,17 6,32c14,38 12,108 -4,129c-7,9 -22,17 -33,17c-16,0 -19,-5 -16,-22z" fill="#aaaaff" id="svg_14"/>
   <path d="m7285,-2381c-141,-128 -252,-213 -465,-355c-371,-246 -462,-341 -682,-711c-50,-84 -95,-153 -100,-153c-22,0 -16,30 13,61l31,34l-23,5c-18,4 -20,8 -10,14c10,7 10,10 1,16c-10,6 -8,17 9,44c13,20 29,40 38,44c8,5 13,19 11,32c-2,19 -15,7 -80,-76c-42,-54 -90,-114 -108,-133l-31,-34l-33,32c-18,18 -46,35 -62,40c-16,4 -30,15 -32,24c-4,22 74,70 115,71c41,1 46,32 7,46c-31,12 -22,29 54,102c31,31 46,62 18,39c-11,-9 -16,-9 -22,0c-5,8 9,28 39,54c26,23 47,46 47,51c0,6 15,32 34,59c19,26 32,54 29,62c-3,7 1,21 9,31c8,9 21,33 28,51c8,19 27,49 42,67c33,37 22,54 -18,27l-27,-17l7,37c9,46 -1,47 -36,5c-23,-27 -28,-30 -28,-14c0,18 -2,18 -25,-4c-22,-21 -25,-21 -25,-6c0,10 27,45 61,77c33,32 58,63 54,68c-8,14 -105,-57 -115,-85c-9,-23 -28,-39 -36,-31c-9,8 116,184 148,207c4,3 3,12 -2,20c-11,18 -5,25 -137,-140c-55,-69 -131,-159 -168,-200c-160,-178 -265,-309 -406,-510c-221,-314 -354,-544 -408,-705c-20,-60 -40,-161 -60,-301c-32,-220 -72,-382 -140,-571c-51,-145 -144,-363 -153,-363c-5,0 -7,21 -5,48c2,47 2,47 -30,47c-17,0 -34,3 -38,7c-4,4 -18,2 -32,-3c-25,-9 -43,-5 -43,12c0,5 17,9 39,9c30,0 40,4 44,20c4,15 14,20 37,20c21,0 29,4 24,11c-5,9 1,10 20,5c14,-3 26,-4 26,-1c0,8 -104,71 -135,82l-29,9l47,51c27,28 60,54 74,58c18,4 23,9 15,14c-9,5 -2,19 21,47c62,72 119,165 150,242c30,74 31,83 31,222c1,124 -4,162 -28,265c-36,156 -73,234 -146,304c-67,66 -145,134 -195,169c-36,26 -43,49 -25,82c7,13 6,21 -5,30c-11,9 -16,4 -25,-29c-11,-41 -11,-41 -36,-25c-20,14 -23,22 -18,49c3,18 1,35 -4,39c-6,4 -7,18 -2,39c16,62 26,123 22,135c-5,15 -56,16 -85,1c-12,-7 -50,-38 -84,-70c-45,-44 -69,-59 -90,-59c-49,0 -106,-21 -132,-49c-14,-15 -51,-35 -81,-45c-30,-10 -76,-31 -102,-48c-49,-31 -158,-141 -158,-159c0,-6 12,4 26,21c36,42 42,31 10,-17c-26,-39 -58,-142 -76,-240c-5,-28 -23,-83 -40,-122c-39,-89 -46,-133 -54,-311c-6,-116 -4,-157 9,-204c14,-54 14,-60 0,-77c-15,-16 -15,-18 4,-24c12,-3 21,-11 21,-16c0,-5 6,-9 13,-9c9,0 13,-22 15,-72c2,-40 15,-143 29,-228c25,-152 25,-172 8,-330c-8,-76 -13,-84 -60,-109c-95,-50 -195,-186 -195,-266c0,-12 -13,-41 -28,-64c-31,-45 -303,-349 -314,-350c-3,-1 -4,8 -1,19c6,22 -7,26 -25,8c-7,-7 -12,-8 -12,-2c0,6 5,15 12,22c9,9 9,18 0,37c-10,22 -18,26 -49,23c-35,-3 -39,-7 -79,-84c-31,-60 -63,-102 -126,-165c-137,-136 -187,-228 -193,-349c-2,-36 -4,-70 -4,-76c-2,-23 -30,-22 -98,1c-68,24 -133,32 -133,17c0,-24 102,-92 138,-92c12,0 22,-6 22,-13c0,-19 54,-62 74,-59c14,3 17,11 14,38c-5,46 5,43 36,-9c26,-45 87,-96 193,-163c57,-36 95,-78 210,-233c11,-14 3,-16 -80,-16c-51,0 -265,-6 -477,-14c-421,-15 -594,-10 -605,17c-8,21 -28,285 -29,385c-1,87 -14,107 -68,107c-46,0 -68,-34 -68,-106c0,-103 -6,-111 -92,-116c-40,-3 -74,-4 -76,-3c-2,2 8,20 23,40c29,43 32,73 10,101c-15,18 -17,17 -55,-26l-40,-45l16,50c9,28 29,66 43,85c43,56 45,61 48,137l2,73l-27,-6c-49,-13 -107,-41 -140,-69l-34,-28l21,34c26,42 26,60 3,89l-19,23l-47,-58c-62,-76 -72,-98 -96,-199c-23,-98 -24,-91 59,-271c47,-102 54,-113 106,-148c64,-44 73,-77 30,-117c-14,-13 -25,-28 -25,-33c0,-6 11,0 24,12c25,24 40,16 30,-16c-3,-10 6,-3 21,15c14,17 30,32 34,32c8,0 26,-49 37,-100c6,-32 7,-33 15,-12c14,37 38,26 50,-23c6,-25 15,-45 20,-45c5,0 4,12 -1,26c-14,37 -13,38 23,10c50,-38 114,-63 196,-75c41,-7 153,-29 250,-51c97,-21 225,-48 285,-59c59,-12 112,-24 117,-27c17,-10 9,-31 -16,-44c-14,-7 -25,-17 -25,-22c0,-4 -7,-8 -15,-8c-8,0 -19,-9 -25,-20c-16,-29 -26,-25 -55,24c-33,57 -59,79 -95,81c-40,2 -39,-18 4,-105l34,-69l-27,17c-14,9 -48,33 -75,54c-27,21 -58,38 -70,38c-28,0 -66,-11 -66,-19c0,-3 27,-35 61,-69c33,-35 58,-66 55,-69c-3,-3 -29,10 -58,30c-69,46 -93,53 -123,33c-14,-9 -25,-21 -25,-26c0,-23 300,-225 372,-250c31,-11 89,-25 130,-31c40,-6 80,-17 89,-25c8,-8 56,-18 105,-23c56,-6 127,-23 194,-47c91,-32 117,-37 190,-36c47,0 126,9 175,20c92,21 200,36 336,48l76,6l44,-71c24,-39 70,-99 101,-133c32,-36 58,-73 58,-85c0,-12 11,-35 25,-51c14,-17 25,-37 25,-46c0,-9 5,-16 10,-16c6,0 10,-15 10,-34c0,-35 15,-57 23,-34c11,32 19,-9 19,-104c0,-120 -7,-141 -95,-301c-64,-117 -46,-98 -352,-357c-135,-113 -205,-178 -205,-188c0,-4 20,-6 45,-4c56,5 83,-4 67,-20c-19,-19 -14,-33 13,-44l25,-9l-56,-80c-71,-103 -131,-204 -232,-390c-104,-193 -123,-237 -160,-370c-122,-440 -95,-659 103,-817c93,-75 148,-93 285,-92c145,1 230,20 550,124c218,70 260,81 385,95c216,24 329,34 468,39l128,6l9,-26l10,-26l93,7c74,5 98,4 122,-9c39,-20 118,-21 135,-1c16,19 103,20 133,1c27,-17 125,-27 133,-14c8,13 384,1 544,-17c116,-13 225,-23 487,-45c121,-10 140,-15 154,-42c9,-16 13,-18 20,-7c6,11 9,10 15,-4c6,-17 7,-17 19,0c12,16 18,15 101,-10c49,-14 128,-31 175,-37c48,-6 109,-17 135,-25c49,-14 186,-31 214,-26c8,1 25,13 37,27c12,13 26,24 32,24c21,0 22,22 2,53c-26,42 -219,231 -296,289c-33,25 -89,64 -125,87c-64,42 -65,43 -25,34c73,-15 264,-7 360,15c310,71 659,103 1128,103c182,-1 221,-3 233,-16c12,-11 40,-15 119,-15c57,0 106,-4 109,-9c4,-5 24,-12 47,-16c33,-6 45,-3 63,14c26,25 110,29 141,7c35,-23 73,-27 112,-11c33,14 62,15 213,7c96,-5 234,-9 305,-8c134,1 375,-17 455,-33c25,-5 85,-17 135,-26c55,-11 94,-23 102,-33c8,-11 12,-12 13,-4c0,24 20,12 20,-13c0,-29 7,-31 31,-9c21,19 39,11 39,-18c0,-21 0,-21 24,2c26,24 56,22 56,-5c0,-19 14,-19 30,0c16,19 120,20 307,3c108,-9 137,-9 164,2c34,15 119,92 119,109c0,31 -264,216 -395,277c-43,20 -97,39 -119,42c-33,4 -50,15 -84,53c-28,32 -75,65 -139,99c-53,28 -112,62 -131,75l-35,24l34,20c32,20 78,27 142,22c15,-1 27,2 27,8c0,21 -120,315 -135,330c-2,2 -16,-11 -31,-28c-55,-66 -115,-74 -304,-42c-89,16 -107,16 -121,5c-8,-8 -22,-14 -30,-14c-38,-2 -118,-63 -181,-142c-105,-129 -136,-144 -288,-135c-93,5 -615,113 -693,143c-9,3 -23,-2 -32,-14c-17,-19 -19,-19 -149,8c-72,15 -160,40 -196,54c-128,52 -320,86 -491,86c-165,0 -399,-51 -554,-121c-80,-36 -141,-49 -180,-38c-51,14 -114,83 -180,194c-60,102 -246,377 -319,473c-83,108 -176,210 -281,307c-175,163 -294,286 -351,360c-49,64 -52,72 -39,90c113,156 235,374 235,421c0,13 -4,23 -8,21c-5,-1 -54,41 -109,93l-100,95l-28,120c-24,106 -92,327 -126,410c-6,17 -11,44 -10,60c1,22 -1,26 -8,15c-5,-8 -7,-18 -5,-22c3,-4 3,-8 1,-8c-2,0 -32,34 -66,76c-40,48 -65,88 -68,110c-3,19 -2,34 2,34c16,0 43,-41 54,-83c14,-47 50,-103 51,-76c0,9 9,24 19,33c19,17 21,16 49,-11c41,-39 49,-58 61,-142c10,-79 30,-118 32,-66c1,17 5,5 9,-25c10,-80 31,-172 37,-167c2,3 -1,48 -7,101c-13,100 -7,174 11,128c13,-35 33,-28 25,11c-13,61 -24,132 -21,135c2,2 20,-31 40,-74c19,-43 42,-85 49,-94c8,-8 22,-40 32,-70c18,-57 42,-96 31,-50c-69,278 -70,339 -6,205c42,-89 50,-78 18,27c-11,38 -19,81 -17,96c3,26 4,26 24,-13c12,-22 24,-58 28,-80c4,-22 9,-49 11,-60c4,-24 27,-101 50,-170c42,-125 52,-126 29,-1c-22,118 -5,133 26,24c40,-144 57,-146 20,-3c-24,92 -26,122 -7,108c6,-6 25,-13 41,-17l28,-7l-33,43c-30,37 -83,166 -73,177c5,6 25,-20 69,-85c19,-29 41,-58 49,-66c8,-8 34,-54 58,-103c25,-49 48,-84 51,-79c3,6 -9,47 -28,92c-22,54 -29,82 -21,85c7,3 -3,31 -28,76c-21,40 -36,75 -33,77c9,9 48,-36 42,-46c-4,-6 3,-23 15,-38c49,-64 158,-248 185,-312c44,-107 47,-65 4,55c-17,47 -29,92 -26,100c3,7 -8,41 -25,75c-33,68 -33,91 2,36c12,-20 25,-36 28,-36c4,0 24,-16 45,-35c47,-43 48,-27 1,36c-40,55 -45,96 -7,57c120,-125 193,-237 179,-275c-4,-9 -1,-20 6,-24c10,-6 13,-49 13,-168c0,-106 3,-152 9,-138c12,27 14,301 3,382l-8,60l20,-25c11,-14 30,-37 41,-53c12,-15 26,-25 31,-21c5,3 9,-12 9,-33c0,-21 5,-45 11,-53c7,-11 8,-3 3,29c-4,31 -3,42 5,37c6,-4 11,-35 11,-71c0,-36 5,-67 11,-71c8,-5 9,5 4,34c-4,23 -2,49 3,59c9,16 11,14 18,-12c9,-35 9,-70 -1,-144c-5,-36 -4,-52 2,-48c6,4 14,32 18,63c7,62 14,61 39,-8c12,-33 26,-52 47,-62c34,-17 35,-16 10,33c-16,31 -61,148 -61,158c0,2 3,3 8,3c16,0 72,-120 86,-184c16,-78 26,-94 26,-43c0,20 3,37 8,37c4,0 19,-24 33,-53c14,-28 37,-74 51,-102c15,-27 33,-67 42,-87c9,-21 23,-38 31,-38c13,0 14,4 4,21c-6,12 -19,46 -30,77c-11,31 -28,65 -38,77c-24,25 -56,106 -66,165c-6,42 -6,44 9,25c8,-11 16,-24 16,-30c0,-20 53,-145 61,-145c5,0 20,-20 34,-44c48,-83 50,-54 3,43c-27,52 -48,105 -48,116c1,42 43,-31 169,-295c41,-86 70,-124 133,-178c81,-69 148,-102 212,-102c61,0 56,6 -20,25c-152,40 -239,145 -403,493c-92,193 -93,249 -2,68c35,-70 65,-125 67,-123c5,5 -54,143 -77,181c-21,33 -59,148 -59,175c0,18 19,-21 45,-94c24,-66 75,-157 97,-173c10,-7 18,-18 18,-24c0,-6 20,-44 45,-84c74,-119 151,-174 242,-174c52,0 46,17 -8,23c-67,8 -130,46 -180,110c-49,61 -76,113 -164,317c-36,85 -98,218 -136,294c-90,183 -76,202 24,31c57,-96 58,-62 2,68c-45,106 -57,148 -31,115c7,-10 17,-18 21,-18c5,0 16,-7 26,-16c28,-26 41,-8 22,31c-9,19 -20,35 -25,35c-4,0 -15,14 -23,31l-16,30l28,-14c46,-24 67,-54 68,-97c0,-21 2,-36 4,-34c3,2 18,-24 35,-58c29,-58 56,-86 56,-58c0,7 -16,46 -36,87c-26,56 -33,78 -24,87c8,8 16,5 30,-14c11,-14 20,-29 20,-34c0,-5 6,-17 13,-25c8,-9 22,-38 31,-66c10,-27 41,-97 69,-155c28,-58 61,-136 73,-175c21,-64 29,-71 24,-20c-1,11 -15,60 -31,109c-16,49 -29,101 -27,115c2,24 -12,62 -48,133c-8,14 -14,31 -14,37c0,16 26,13 40,-4c17,-20 27,-19 35,5c6,18 8,18 21,5c9,-8 19,-15 24,-15c10,0 83,-120 117,-193c28,-59 50,-143 57,-217c13,-127 29,-236 37,-255c6,-14 7,-8 3,20c-2,22 -11,108 -19,190c-8,84 -23,180 -35,218c-12,38 -19,71 -16,75c8,8 70,-60 88,-97c12,-26 17,-29 22,-16c5,15 9,15 23,4c16,-14 8,1 -61,117c-17,27 -41,63 -55,80c-71,85 -82,104 -61,104c6,0 10,-4 10,-9c0,-5 8,-12 18,-15c39,-13 183,-261 166,-288c-3,-4 11,-40 30,-80c18,-40 47,-102 63,-138c24,-52 35,-66 52,-66c12,0 19,5 17,11c-3,5 -21,46 -40,90c-36,81 -43,105 -28,105c12,0 91,-162 98,-202c3,-20 12,-45 19,-55c12,-16 13,-12 8,26c-7,51 7,50 33,-2c9,-18 29,-48 44,-67c15,-19 42,-63 60,-97c18,-35 39,-63 47,-63c8,0 13,3 11,8c-2,4 -20,41 -40,83c-19,42 -43,79 -52,82c-21,8 -80,134 -94,200c-5,26 -8,47 -7,47c2,0 27,-51 58,-113c53,-111 57,-116 211,-270c87,-87 176,-167 198,-180c22,-12 52,-29 67,-37c16,-9 58,-15 111,-16c47,-2 74,0 60,2c-14,2 -52,9 -85,15c-178,32 -302,163 -570,604c-298,491 -412,631 -639,785c-158,106 -605,335 -788,404c-35,13 -48,23 -48,37c0,11 -22,44 -49,72c-50,54 -87,114 -76,125c3,3 40,-30 81,-74c49,-52 67,-66 50,-40c-14,21 -26,43 -26,49c0,20 49,-36 55,-62c3,-14 15,-37 26,-51c17,-20 19,-21 14,-5c-5,11 -10,33 -13,49c-4,26 -3,27 18,16c12,-7 25,-8 29,-4c11,15 40,9 55,-11c15,-19 15,-19 16,-1c0,18 2,18 25,-4c34,-31 41,-20 17,27c-25,48 -37,103 -23,103c5,0 13,-4 16,-10c14,-22 27,-9 22,20c-4,17 -4,30 0,30c10,0 77,-42 101,-64l23,-20l-7,72c-4,44 -3,72 3,72c16,0 49,-42 77,-98c15,-29 31,-50 36,-47c4,3 27,-29 50,-71c23,-41 44,-73 46,-71c2,2 -12,38 -31,80c-19,42 -35,86 -35,98c0,12 -11,53 -25,92c-27,74 -26,90 3,64c10,-10 22,-17 27,-17c4,0 23,-11 41,-25c18,-14 37,-25 43,-25c5,0 24,-20 42,-45c39,-54 60,-60 28,-7c-59,98 -73,129 -75,164c-2,36 0,38 27,38c22,0 31,-7 45,-35c9,-20 26,-41 38,-47c11,-6 31,-20 43,-31c44,-40 34,-8 -12,42c-41,44 -45,51 -26,51c24,0 27,10 9,28c-9,9 -9,15 0,24c10,10 15,10 21,-1c5,-7 13,-11 19,-7c6,4 20,-4 31,-16c18,-18 21,-19 21,-5c0,20 40,23 58,5c9,-9 12,-8 12,4c0,9 6,18 12,20c7,3 -9,10 -36,17c-38,9 -60,24 -98,64c-26,28 -48,55 -48,59c0,11 28,10 52,-3c15,-8 22,-8 28,1c6,10 13,9 31,-4c52,-36 53,-6 2,46c-30,31 -35,40 -24,50c10,11 15,9 27,-7c8,-11 18,-20 22,-20c14,0 80,-81 112,-137c46,-82 51,-75 9,11c-10,20 -14,37 -10,39c4,1 41,-19 82,-46c108,-71 112,-71 32,3c-40,37 -73,74 -73,84c0,9 -20,32 -45,51c-80,63 -46,93 41,35c30,-20 58,-34 61,-31c8,8 -26,44 -48,51c-11,4 -24,15 -29,26c-20,36 34,23 85,-21c25,-22 52,-37 59,-34c27,10 56,-17 116,-109c33,-50 60,-89 60,-87c0,3 -27,59 -59,125c-33,66 -56,121 -51,123c12,4 86,-34 107,-57c20,-20 83,-36 83,-21c0,6 -4,10 -9,10c-17,0 -71,51 -71,67c0,11 14,7 57,-17c42,-24 61,-30 73,-23c8,6 31,8 49,5c25,-3 38,0 47,13c11,15 21,16 81,7c68,-10 103,-5 67,9c-10,4 -32,8 -49,8c-16,1 -37,5 -45,11c-25,16 -2,24 37,12c45,-13 184,-24 162,-12c-29,16 -497,153 -584,171c-172,36 -813,51 -1148,28l-167,-12l-29,27c-16,15 -28,35 -27,44c1,11 -14,24 -39,35c-75,34 -89,42 -84,52c2,5 30,9 61,8c46,-1 65,-7 93,-29c19,-14 35,-30 35,-35c0,-18 17,-8 28,16c15,33 29,32 70,-7l34,-33l-21,43c-25,49 -16,54 24,12c46,-48 50,-34 6,21c-23,29 -41,56 -41,61c0,6 14,8 34,4c28,-5 35,-3 38,11c2,10 -8,28 -22,40l-25,21l28,7c15,4 38,4 51,1c33,-8 41,8 16,32c-12,11 -18,26 -15,34c4,9 0,18 -9,21c-24,10 -19,26 12,38c42,16 95,-4 136,-53c42,-49 51,-27 11,26c-14,18 -25,39 -25,47c0,8 -5,20 -12,27c-8,8 -9,18 -1,35c11,24 18,26 88,28c15,1 11,5 -12,15c-45,19 -41,36 15,62c72,34 122,63 122,72c0,4 -7,10 -15,14c-8,3 -15,11 -15,17c0,8 14,10 45,6c43,-6 45,-5 45,18c0,20 5,25 26,25c38,0 29,40 -15,61l-33,16l41,20c60,30 109,14 179,-57l55,-55l-24,45c-13,25 -34,57 -47,72c-45,50 -3,58 80,17c21,-11 47,-19 58,-19c11,0 32,-7 46,-16c13,-9 27,-15 29,-12c4,4 -117,110 -146,129c-29,18 4,21 63,6c35,-9 79,-15 98,-15c19,1 46,-2 60,-6c14,-3 3,5 -25,18c-27,14 -69,25 -92,25c-23,1 -45,6 -48,12c-11,17 1,22 24,10c17,-10 20,-9 15,4c-4,10 0,15 15,15c12,0 21,5 21,10c0,6 -4,10 -10,10c-5,0 -10,5 -10,11c0,12 65,4 85,-10c19,-13 86,-33 92,-27c4,3 -1,6 -10,6c-9,0 -17,5 -17,10c0,6 -7,10 -15,10c-9,0 -27,7 -41,17c-30,19 -17,33 33,33c17,0 39,3 47,6c15,6 15,8 -1,20c-24,18 -4,18 40,-1c33,-13 35,-13 40,5c3,13 -1,21 -14,25c-22,7 -26,35 -4,35c8,0 19,8 24,18c5,10 19,18 32,19c30,3 48,21 31,32c-10,6 2,18 40,44c29,19 60,44 69,54c29,33 77,66 110,77c18,6 34,16 36,23c2,6 -55,-8 -129,-32c-73,-24 -211,-64 -306,-89c-310,-82 -403,-121 -782,-331c-102,-56 -300,-160 -440,-232c-140,-72 -311,-163 -380,-202l-124,-72l-19,25c-10,14 -24,26 -30,26c-15,0 -77,43 -77,54c0,4 11,5 25,2c14,-4 25,-4 25,-1c0,2 -20,23 -45,46c-52,48 -59,73 -19,63c40,-10 22,11 -39,46c-65,37 -45,48 44,26c78,-20 85,-27 121,-101c15,-33 28,-53 28,-44c0,33 -32,104 -66,148c-37,49 -40,74 -9,79c11,2 27,6 35,9c8,3 23,5 33,4c9,-1 17,3 17,8c0,6 17,11 37,11c20,0 44,6 52,14c9,7 29,18 45,23c33,10 47,33 20,33c-9,0 -14,3 -11,7c4,3 2,12 -5,20c-17,21 -3,26 36,12c28,-10 38,-10 50,0c9,7 13,18 10,23c-3,5 -8,7 -11,4c-3,-3 -15,0 -26,6c-20,10 -20,11 4,29c13,10 28,19 33,19c5,0 15,8 22,18c9,13 28,17 76,19c74,2 88,15 25,24c-24,4 -52,12 -63,17c-10,6 -28,14 -39,18c-19,7 -19,7 -2,11c10,3 32,-1 49,-8c41,-17 98,-18 98,-2c0,7 -17,17 -37,23c-42,11 -76,30 -56,30c7,0 10,6 7,14c-4,9 9,19 41,31c25,10 43,20 41,23c-3,2 -95,-26 -206,-62c-110,-37 -204,-65 -208,-62c-4,2 -32,7 -62,10c-39,5 -51,4 -40,-3c8,-6 30,-11 48,-11c17,0 32,-4 32,-8c0,-5 -26,-21 -59,-36c-56,-27 -59,-28 -85,-11c-33,22 -33,33 -1,45c14,5 25,14 25,20c0,9 -75,15 -123,10c-22,-2 -47,17 -47,37c0,11 4,11 21,3c15,-8 24,-8 34,0c9,7 26,8 56,1c71,-15 129,-16 212,-1c60,10 77,16 73,27c-4,8 -6,17 -6,19c0,2 -13,4 -30,4c-31,0 -43,19 -12,21c20,1 12,4 -45,19c-69,18 -57,32 40,45c26,3 47,10 47,16c0,14 -90,10 -138,-6c-28,-10 -49,-12 -60,-6c-13,7 -7,12 28,21c25,7 50,15 55,20c19,14 194,31 215,20c10,-5 31,-10 47,-10c15,0 52,-11 81,-25c57,-26 72,-30 72,-17c0,4 -35,24 -78,44c-43,20 -89,46 -103,56l-24,20l70,-3c74,-2 187,-25 223,-44c30,-16 49,-14 26,4c-37,28 16,14 114,-31c67,-31 40,-6 -46,41c-48,27 -109,67 -137,88c-27,22 -79,53 -114,69c-37,16 -60,32 -55,37c5,5 52,12 104,15c52,4 102,7 110,8c8,0 33,-2 54,-7c95,-19 -34,45 -152,75c-30,8 -46,19 -54,36c-9,19 -19,24 -49,24c-24,0 -39,5 -43,16c-9,24 -9,24 32,24c46,0 82,9 82,21c0,5 -16,9 -36,9c-21,0 -33,4 -29,10c3,6 20,10 36,10c27,0 29,2 19,21c-15,27 -2,42 52,58c62,19 118,43 125,54c4,6 -24,7 -76,3c-55,-5 -81,-4 -81,3c0,6 -11,11 -25,11c-14,0 -25,3 -25,7c0,13 53,63 67,63c18,0 16,10 -4,25c-14,10 -10,13 28,19c55,8 74,19 66,40c-5,13 -15,15 -47,10c-22,-4 -40,-4 -40,-1c0,11 65,36 103,40c20,2 43,11 50,20c9,12 30,18 77,19c36,2 71,9 78,16c7,6 29,12 48,12c19,0 34,4 34,9c0,13 -38,21 -106,21c-46,0 -68,5 -85,19c-16,13 -30,16 -44,11c-29,-10 -103,-11 -109,-1c-10,16 20,41 88,69c59,25 74,28 105,20c20,-6 43,-15 51,-22c17,-14 102,-48 107,-42c14,13 -176,116 -216,116c-41,0 -71,11 -71,26c0,8 5,14 10,14c6,0 30,9 53,21c54,26 138,49 183,49c37,0 128,-37 176,-72c15,-10 28,-15 28,-10c0,14 -41,48 -105,86c-52,31 -69,36 -122,36c-35,0 -63,4 -63,8c0,14 32,39 60,47c14,4 40,21 58,36c18,16 40,29 48,29c20,0 104,49 104,61c0,5 -18,-1 -40,-13c-30,-18 -43,-21 -57,-12c-31,19 -24,29 47,63c80,39 99,56 82,73c-8,8 -6,21 10,50c19,34 20,42 9,60c-12,20 -10,24 18,47c18,15 31,35 31,48c0,13 16,35 42,57c43,35 48,57 9,36c-24,-13 -28,2 -5,20c8,8 20,23 26,34c7,14 -2,9 -26,-13c-20,-19 -36,-29 -36,-22c0,7 -6,9 -12,6c-7,-4 24,29 70,72c45,44 82,83 82,88c0,4 -8,1 -17,-7c-51,-43 -57,-29 -11,22c97,108 92,106 -37,-11zm-94,-250c-13,-11 -27,-17 -30,-14c-3,4 5,15 19,25c32,24 42,14 11,-11zm-1231,-204c-7,-8 -16,-12 -21,-9c-13,8 -1,24 18,24c13,0 13,-3 3,-15zm160,-38c0,-17 -36,-47 -57,-47c-13,0 -10,7 12,30c31,32 45,38 45,17zm575,-466c8,-13 -33,-34 -52,-27c-12,5 -13,9 -3,21c14,17 46,20 55,6zm-836,-245c6,-7 9,-21 5,-30c-7,-19 3,-16 -71,-23c-54,-4 -63,-3 -63,11c0,21 57,56 91,56c15,0 32,-6 38,-14zm661,-85c0,-10 -24,-21 -46,-21c-8,0 -14,7 -14,15c0,10 10,15 30,15c17,0 30,-4 30,-9zm-875,-171c-20,-22 -49,-27 -43,-7c5,13 50,39 57,32c2,-3 -4,-14 -14,-25zm890,-426c28,-13 39,-21 25,-18c-29,7 -100,43 -85,43c6,0 33,-11 60,-25zm-204,-50c17,-8 29,-17 27,-19c-7,-6 -119,21 -112,28c12,12 53,8 85,-9zm1576,-330c-3,-3 -12,-4 -19,-1c-8,3 -5,6 6,6c11,1 17,-2 13,-5zm-1477,-64c0,-5 -4,-10 -10,-10c-5,0 -10,5 -10,10c0,6 5,10 10,10c6,0 10,-4 10,-10zm-490,-19c7,-13 23,-21 48,-23l37,-3l-33,-21c-39,-25 -62,-22 -109,14c-48,36 -45,41 34,51c7,0 17,-8 23,-18zm1710,-181c0,-5 -2,-10 -4,-10c-3,0 -8,5 -11,10c-3,6 -1,10 4,10c6,0 11,-4 11,-10zm40,-20c8,-5 11,-10 5,-10c-5,0 -17,5 -25,10c-8,5 -10,10 -5,10c6,0 17,-5 25,-10zm-1915,-10c-3,-5 -12,-10 -18,-10c-7,0 -6,4 3,10c19,12 23,12 15,0zm1295,-201c68,-21 155,-37 160,-29c6,9 90,18 85,10c-2,-4 -37,-16 -77,-29c-58,-18 -79,-21 -100,-12c-16,6 -28,17 -28,25c0,9 -15,17 -40,21c-22,4 -40,11 -40,16c0,11 -2,11 40,-2zm-2470,-19c12,-8 9,-10 -12,-10c-15,0 -30,5 -33,10c-8,13 25,13 45,0zm1420,-28c-17,-6 -42,7 -35,18c4,6 13,5 26,-3c10,-6 15,-13 9,-15zm-1042,-31c3,-8 -1,-12 -9,-9c-7,2 -15,10 -17,17c-3,8 1,12 9,9c7,-2 15,-10 17,-17zm965,-23c34,-17 69,-31 77,-30c19,2 143,-60 147,-74c2,-5 -16,-20 -39,-33c-24,-12 -61,-33 -83,-46l-40,-24l-55,31c-30,17 -69,42 -87,56c-30,25 -31,27 -13,39c15,10 30,11 70,2c28,-6 54,-9 57,-6c11,11 -19,46 -49,56c-33,12 -68,38 -68,53c0,14 19,9 83,-24zm1067,-12c0,-2 -9,-6 -20,-9c-11,-3 -20,-1 -20,4c0,5 9,9 20,9c11,0 20,-2 20,-4zm140,-26c0,-5 -4,-10 -10,-10c-5,0 -10,5 -10,10c0,6 5,10 10,10c6,0 10,-4 10,-10zm-1211,-169l45,-18l-26,-17c-33,-22 -72,-13 -87,20c-6,14 -11,27 -11,29c0,10 37,3 79,-14zm-123,-46c10,-8 14,-15 8,-15c-5,0 -19,7 -30,15c-10,8 -14,15 -8,15c5,0 19,-7 30,-15zm63,-19c10,-12 8,-17 -7,-25c-20,-10 -32,1 -32,30c0,14 26,11 39,-5zm-210,-99c12,-18 11,-18 -18,2c-17,12 -31,27 -31,32c0,13 35,-10 49,-34zm-234,-57c3,-5 14,-10 25,-10c21,0 83,-67 75,-81c-12,-19 -33,-8 -79,41c-25,27 -46,52 -46,55c0,9 19,6 25,-5zm197,-4c10,-7 15,-16 11,-19c-11,-12 -22,-8 -33,13c-12,23 -3,25 22,6zm113,-136c14,-16 15,-20 4,-20c-16,0 -39,19 -39,32c0,14 16,9 35,-12zm838,-17c-7,-2 -19,-2 -25,0c-7,3 -2,5 12,5c14,0 19,-2 13,-5zm1093,-301c-4,-3 -14,2 -24,12c-16,18 -16,18 6,6c13,-6 21,-14 18,-18zm-4672,-50c2,-4 -4,-13 -14,-20c-16,-10 -18,-9 -13,5c4,11 3,14 -5,9c-7,-4 -12,-2 -12,3c0,13 36,15 44,3zm-46,-84c-8,-12 -20,-24 -26,-26c-7,-2 -2,8 11,22c27,32 34,33 15,4zm4645,-5c-7,-2 -19,-2 -25,0c-7,3 -2,5 12,5c14,0 19,-2 13,-5zm-906,-358c12,-8 31,-31 44,-51c12,-20 24,-31 28,-26c3,5 23,-2 45,-17c21,-14 57,-36 80,-49c47,-26 31,-23 -89,14c-92,28 -91,28 -128,72c-44,55 -31,93 20,57zm-1817,-344c0,-14 4,-42 9,-61c5,-19 13,-57 17,-85l7,-50l9,40c5,22 7,57 5,78c-8,62 18,44 43,-30c29,-87 43,-111 34,-59c-5,29 -4,37 5,32c13,-8 10,10 -15,94c-21,70 -18,92 7,50c28,-46 47,-110 59,-199c5,-40 17,-88 26,-105c10,-17 26,-48 37,-68c10,-21 23,-38 29,-38c5,0 7,4 4,9c-3,5 -8,30 -11,56c-3,26 -10,68 -16,94c-24,118 -24,123 8,103c24,-15 93,-217 93,-271c0,-25 3,-32 9,-22c7,11 12,3 21,-29c13,-46 7,-121 -14,-193c-12,-42 -12,-42 -61,-43c-28,0 -76,-4 -107,-8c-42,-6 -58,-5 -58,3c0,7 6,11 13,10c29,-4 41,1 30,12c-8,8 -31,8 -83,0c-40,-7 -74,-10 -75,-9c-12,15 -37,319 -39,485c-2,114 -6,222 -10,238c-7,28 -7,29 8,11c9,-11 16,-31 16,-45zm714,-186c2,-11 10,-56 19,-100c8,-44 13,-82 11,-84c-13,-14 -37,35 -44,90c-23,165 -23,156 -5,134c9,-11 17,-29 19,-40zm-366,-70l1,-20l-9,20c-5,11 -8,31 -8,45l0,25l8,-25c4,-14 8,-34 8,-45zm577,-109c11,-41 15,-78 11,-100l-7,-36l-34,27c-18,15 -31,31 -28,36c3,6 14,-1 24,-14c23,-30 24,-14 3,58c-15,53 -12,109 5,99c5,-3 17,-35 26,-70zm-95,-24c6,-7 10,-19 8,-28c-3,-13 -6,-13 -25,1c-16,11 -23,26 -23,48c1,30 1,31 15,12c8,-11 19,-26 25,-33zm-382,-72c0,-9 -3,-7 -8,5c-5,11 -8,29 -8,40c0,16 2,15 8,-5c4,-14 8,-32 8,-40zm42,-64c5,-44 17,-105 28,-134c19,-51 40,-87 29,-47c-24,79 -38,150 -35,178l4,32l23,-48c31,-67 36,-54 7,19c-13,32 -27,70 -31,84c-7,22 -6,23 8,11c10,-7 31,-38 48,-68c17,-30 33,-52 36,-50c2,3 -12,34 -32,71c-20,36 -33,66 -28,66c4,0 25,-33 47,-73c44,-82 185,-307 193,-307c3,0 -7,20 -21,44c-29,49 -32,61 -14,50c7,-4 8,-3 4,5c-4,6 -12,8 -18,5c-7,-4 -8,-2 -4,5c4,6 -10,37 -33,71c-23,33 -41,63 -41,67c0,3 -7,15 -17,25c-9,10 -14,20 -11,23c2,3 19,-15 37,-40c17,-24 37,-48 44,-52c7,-4 -1,10 -17,31c-29,38 -30,55 -2,39c24,-13 146,-181 169,-233c11,-25 31,-85 43,-135c26,-103 32,-90 8,18c-9,40 -31,105 -49,145c-19,39 -30,72 -26,72c5,0 25,-19 46,-42c20,-24 50,-58 66,-76c16,-18 36,-47 45,-65c9,-17 22,-39 29,-47c6,-8 19,-36 29,-62c17,-46 32,-65 42,-55c2,2 -9,41 -26,87c-17,46 -29,84 -27,86c2,2 17,-24 34,-58c26,-54 33,-79 44,-153c0,-5 4,1 8,15c6,22 11,14 39,-58c41,-106 41,-125 5,-90c-38,36 -235,176 -309,221c-134,81 -316,149 -435,164c-65,8 -79,18 -54,37c15,12 17,18 8,24c-14,9 -12,29 12,98c9,27 20,78 25,114c4,36 8,54 10,40c1,-14 7,-86 14,-160l13,-135l4,125c2,69 3,150 2,180c-3,84 18,36 27,-64zm560,-9c0,-37 -3,-48 -10,-37c-13,20 -13,103 0,95c6,-3 10,-30 10,-58zm330,-7c0,-13 -1,-13 -10,0c-5,8 -10,22 -10,30c0,13 1,13 10,0c5,-8 10,-22 10,-30zm1072,-65c20,-39 40,-95 33,-95c-5,0 -95,170 -95,179c1,11 40,-43 62,-84zm-1626,48c-7,-7 -26,7 -26,19c0,6 6,6 15,-2c9,-7 13,-15 11,-17zm2425,-87c41,-68 79,-146 79,-163c0,-24 -12,-9 -50,61c-17,32 -46,81 -65,109c-19,29 -35,58 -35,66c0,17 44,-29 71,-73zm-2262,20c12,-18 21,-37 21,-42c0,-14 -49,49 -50,64c0,20 7,14 29,-22zm-69,-37c0,-6 -4,-7 -10,-4c-5,3 -10,11 -10,16c0,6 5,7 10,4c6,-3 10,-11 10,-16zm307,-71c-3,-7 -5,-2 -5,12c0,14 2,19 5,13c2,-7 2,-19 0,-25zm-1154,5c-7,-2 -19,-2 -25,0c-7,3 -2,5 12,5c14,0 19,-2 13,-5zm1484,-25c-3,-8 -6,-5 -6,6c-1,11 2,17 5,13c3,-3 4,-12 1,-19zm-1237,-4c0,-2 -19,-4 -42,-4c-26,0 -38,4 -30,8c12,8 72,4 72,-4zm2021,-48c23,-47 23,-90 -1,-46c-13,24 -31,90 -25,90c2,0 13,-20 26,-44zm-121,-8c29,-40 38,-68 22,-68c-9,0 -37,45 -51,83c-15,38 -6,33 29,-15zm-4429,-3l65,-7l60,-76c82,-105 80,-99 48,-133c-34,-36 -86,-39 -146,-8c-33,17 -51,20 -97,15c-66,-8 -125,10 -152,45c-25,32 -24,37 7,31c19,-3 23,-7 12,-14c-18,-13 27,0 77,22c22,9 61,25 88,35c67,25 52,29 -18,5c-32,-11 -60,-19 -62,-17c-2,2 2,18 8,36c6,17 8,43 5,57c-6,24 -5,26 16,21c13,-3 53,-9 89,-12zm464,-45c94,-5 179,-13 190,-16c11,-3 41,-34 67,-69c44,-59 46,-65 30,-74c-21,-11 -248,-81 -263,-81c-5,0 -27,28 -49,63c-23,37 -57,74 -84,92c-55,37 -111,113 -73,100c6,-2 89,-9 182,-15zm4289,-67c9,-26 16,-49 16,-52c0,-13 -32,43 -40,69c-14,49 7,34 24,-17zm-1369,-86c13,-49 20,-65 27,-55c8,10 9,10 5,-2c-2,-8 6,-48 19,-89c17,-55 19,-70 8,-59c-8,8 -21,37 -29,64c-8,27 -23,75 -34,107c-23,65 -38,141 -23,117c5,-8 17,-46 27,-83zm1565,-142c0,-5 -5,-3 -10,5c-5,8 -10,20 -10,25c0,6 5,3 10,-5c5,-8 10,-19 10,-25zm-3678,-570c3,-13 1,-22 -3,-19c-9,5 -13,44 -5,44c2,0 6,-11 8,-25zm1142,-855c6,-33 22,-37 74,-19c31,10 33,9 122,-85c50,-52 135,-134 189,-181l99,-86l-9,-37c-8,-36 -8,-36 109,-155c136,-138 269,-252 382,-328c44,-29 80,-55 80,-58c0,-4 -18,-19 -40,-34c-22,-16 -65,-61 -94,-101c-76,-103 -115,-121 -241,-113c-88,6 -316,45 -595,102c-115,23 -126,24 -137,9c-11,-15 -19,-15 -110,1c-54,9 -150,31 -214,50c-141,41 -238,55 -376,55l-106,0l91,93c50,50 104,108 119,129c15,20 72,94 126,164c56,73 95,134 92,142c-8,21 221,325 338,450c43,44 92,46 101,2zm512,-414c9,-9 10,-17 4,-21c-5,-3 -10,-1 -10,5c0,6 -4,8 -10,5c-5,-3 -10,1 -10,9c0,20 7,20 26,2zm108,-125c4,-5 -3,-7 -14,-4c-23,6 -26,13 -6,13c8,0 17,-4 20,-9zm329,-241c3,-11 2,-20 -3,-20c-4,0 -10,9 -13,20c-3,11 -2,20 3,20c4,0 10,-9 13,-20zm742,-560c74,-50 135,-93 135,-94c0,-1 -14,0 -32,2c-17,3 -50,19 -73,37c-23,17 -77,53 -119,80c-42,27 -76,55 -76,63c0,21 15,13 165,-88z" fill="#aaaaff" id="svg_15"/>
   <path d="m6000,-5344c0,-2 7,-7 16,-10c8,-3 12,-2 9,4c-6,10 -25,14 -25,6z" fill="#aaaaff" id="svg_16"/>
   <path d="m6040,-5364c0,-2 7,-7 16,-10c8,-3 12,-2 9,4c-6,10 -25,14 -25,6z" fill="#aaaaff" id="svg_17"/>
   <path d="m5025,-7231c6,-45 -41,-185 -74,-224c-25,-29 -25,-29 -2,-10l24,20l-5,-22c-7,-27 -1,-29 24,-6c24,21 28,15 38,-49c4,-29 8,-47 9,-40c2,29 26,3 32,-34l6,-39l2,46c1,41 4,48 26,53c14,4 25,12 25,20c0,7 11,18 25,24c14,6 25,17 25,23c0,7 11,9 30,6c27,-6 30,-4 30,18c0,15 -11,31 -30,45c-25,18 -42,21 -93,18l-61,-3l3,75c2,66 0,78 -18,94c-21,19 -21,19 -16,-15z" fill="#aaaaff" id="svg_18"/>
   <path d="m4834,-2536c-8,-19 -16,-49 -17,-65c-1,-16 -3,-29 -3,-29c-1,0 -23,9 -49,21c-25,11 -50,18 -53,14c-4,-3 -2,-9 4,-13c5,-4 31,-22 56,-39c26,-18 51,-33 55,-33c5,0 22,-14 39,-31c33,-34 83,-64 92,-54c4,3 -11,22 -33,42l-40,35l41,-31c45,-33 63,-38 82,-19c30,30 -2,85 -60,104c-15,4 -17,8 -8,14c14,9 4,33 -37,88c-31,42 -50,41 -69,-4z" fill="#aaaaff" id="svg_19"/>
   <path d="m2018,-2557c-25,-28 -78,-138 -78,-161c0,-12 5,-24 10,-27c16,-10 12,-23 -10,-30c-11,-4 -30,-24 -43,-46c-12,-21 -33,-42 -46,-47c-22,-7 -21,-9 19,-22c42,-14 45,-13 101,17c70,38 78,29 39,-46c-27,-51 -28,-53 -11,-91c12,-29 17,-34 19,-20c2,10 19,29 39,41c19,12 43,35 53,51c11,18 20,25 24,19c14,-22 55,-10 130,39c42,27 76,54 76,59c0,6 -10,17 -22,25c-24,17 -130,21 -178,7c-48,-14 -58,3 -53,93c8,121 -26,188 -69,139z" fill="#aaaaff" id="svg_20"/>
   <path d="m3314,-2677c-10,-15 -29,-39 -42,-52c-16,-18 -21,-32 -17,-48c4,-16 1,-23 -7,-22c-30,4 -39,-4 -61,-50c-23,-47 -24,-49 -5,-74c17,-23 22,-25 48,-16c16,6 34,17 41,25c6,8 16,14 21,14c5,0 -7,-19 -26,-42l-36,-42l21,-22c17,-18 28,-21 58,-17c44,7 81,28 81,48c0,11 7,14 25,9c16,-4 34,1 52,13c15,10 40,24 56,31c15,6 27,16 27,22c0,22 -53,43 -113,44c-79,2 -88,7 -76,49c16,56 11,122 -10,141c-19,17 -20,17 -37,-11z" fill="#aaaaff" id="svg_21"/>
   <path d="m5115,-2930c-11,-35 5,-94 45,-175c50,-100 48,-106 -50,-120c-92,-13 -135,-36 -92,-49c38,-11 201,-4 213,10c9,12 14,11 32,-1c24,-17 94,-20 117,-5c11,7 9,11 -13,19c-15,6 -39,14 -53,17c-38,10 -36,19 4,20c21,0 50,4 66,8c26,6 28,10 23,42c-6,35 -38,74 -62,74c-6,0 -20,-7 -31,-15c-27,-20 -37,-19 -24,4c17,33 12,44 -61,119c-71,74 -103,88 -114,52z" fill="#aaaaff" id="svg_22"/>
   <path d="m1531,-3358c-11,-16 -26,-49 -32,-74l-12,-44l-51,18c-108,37 -144,16 -87,-49c20,-23 42,-43 50,-45c17,-4 71,-102 72,-132l0,-21l9,21c5,12 13,25 19,29c6,3 11,28 11,56c0,28 5,49 11,49c5,0 7,6 3,13c-4,6 4,2 17,-9c35,-31 69,-47 107,-49c34,-2 34,-2 14,14c-11,9 -28,34 -37,56c-8,21 -21,42 -27,46c-9,6 -9,11 -1,21c16,19 -8,122 -29,126c-9,2 -25,-10 -37,-26z" fill="#aaaaff" id="svg_23"/>
   <path d="m3407,-3387c-17,-20 -92,-175 -122,-255c-21,-57 -46,-67 -78,-29c-46,55 -162,153 -209,177c-88,45 -106,26 -51,-53c21,-31 52,-78 69,-105c35,-57 48,-68 87,-68c15,0 27,-4 27,-10c0,-5 -6,-10 -14,-10c-16,0 -30,-28 -27,-50c2,-8 20,-32 41,-52c54,-54 73,-51 108,17l20,40l7,-38c9,-46 24,-44 48,8c26,54 33,105 16,115c-11,7 -9,13 8,32c12,13 28,48 36,78c8,30 25,88 37,127c24,81 24,105 -3,76z" fill="#aaaaff" id="svg_24"/>
   <path d="m2346,-3798c-3,-5 -1,-24 4,-43c6,-19 10,-49 10,-67c0,-20 6,-35 15,-39c14,-5 14,-7 0,-23c-18,-20 -22,-43 -12,-81c5,-19 1,-34 -13,-52c-28,-35 -25,-45 5,-17c20,19 29,21 47,13c26,-12 47,5 92,72c16,25 26,33 26,22c0,-19 20,-24 21,-4c1,26 18,-30 18,-63c1,-42 16,-60 48,-60c16,0 24,-7 29,-25c3,-14 10,-25 15,-25c4,0 3,14 -3,30c-8,25 -6,36 12,67c14,24 20,46 16,64c-3,18 0,29 10,33c8,3 20,18 26,33c7,15 21,41 31,56c24,35 13,49 -35,49c-40,0 -104,-30 -132,-61c-26,-29 -41,-26 -56,9c-13,32 -94,110 -114,110c-6,0 -21,3 -32,6c-12,3 -24,1 -28,-4z" fill="#aaaaff" id="svg_25"/>
   <path d="m6545,-3940c4,-6 11,-8 16,-5c14,9 11,15 -7,15c-8,0 -12,-5 -9,-10z" fill="#aaaaff" id="svg_26"/>
   <path d="m3585,-4032c-43,-94 -75,-189 -75,-221c1,-12 11,5 24,39c13,33 33,78 44,100c20,39 54,155 48,161c-2,2 -20,-34 -41,-79z" fill="#aaaaff" id="svg_27"/>
   <path d="m6600,-3964c0,-18 22,-26 73,-26c47,0 83,15 57,24c-8,2 -41,7 -72,10c-46,5 -58,3 -58,-8z" fill="#aaaaff" id="svg_28"/>
   <path d="m1635,-4497c-3,-16 -10,-46 -16,-68c-5,-22 -13,-50 -16,-61c-3,-14 3,-28 16,-41l21,-20l-25,-11c-22,-10 -25,-18 -25,-62c0,-35 -5,-55 -18,-68c-21,-21 -209,-102 -294,-127c-32,-9 -60,-21 -63,-26c-12,-19 33,-8 120,30c50,21 151,60 225,86c74,26 144,56 156,66c34,32 36,22 4,-34c-49,-87 -37,-117 20,-49c21,24 30,30 26,17c-13,-46 -36,-168 -32,-172c2,-2 9,20 16,49c16,68 25,84 71,135c22,24 39,49 39,57c0,8 9,18 20,21c11,4 38,30 59,58c21,29 45,58 54,66c40,33 1,43 -48,12c-16,-10 -53,-39 -82,-65c-33,-30 -57,-44 -67,-40c-9,3 -14,9 -12,13c7,11 -23,144 -40,178c-14,27 -81,83 -99,83c-2,0 -7,-12 -10,-27z" fill="#aaaaff" id="svg_29"/>
   <path d="m2534,-4505c-3,-8 1,-38 9,-67c9,-29 19,-66 22,-83c9,-41 23,-55 54,-55l26,0l-32,-20c-39,-24 -44,-64 -13,-98c33,-35 49,-29 99,34c12,15 23,25 25,23c3,-2 0,-26 -5,-52c-11,-61 1,-87 39,-87c47,0 66,21 59,65c-6,35 -5,36 12,21c23,-21 41,-20 71,2c13,9 42,26 65,37c56,28 60,60 8,81c-32,14 -50,15 -118,5c-53,-7 -81,-8 -83,-1c-2,5 -11,10 -20,10c-10,0 -33,27 -57,66c-64,105 -144,164 -161,119z" fill="#aaaaff" id="svg_30"/>
   <path d="m6308,-4517c-24,-3 -38,-9 -38,-18c0,-20 17,-27 37,-16c10,6 44,13 76,16c31,4 57,11 57,16c0,9 -57,10 -132,2z" fill="#aaaaff" id="svg_31"/>
   <path d="m6485,-4810c-3,-5 -1,-10 4,-10c6,0 11,5 11,10c0,6 -2,10 -4,10c-3,0 -8,-4 -11,-10z" fill="#aaaaff" id="svg_32"/>
   <path d="m1706,-5138c-5,-18 -5,-36 -2,-39c7,-7 19,43 13,59c-2,7 -7,-2 -11,-20z" fill="#aaaaff" id="svg_33"/>
   <path d="m6140,-5234c0,-2 8,-10 18,-17c15,-13 16,-12 3,4c-13,16 -21,21 -21,13z" fill="#aaaaff" id="svg_34"/>
   <path d="m1310,-5385c-10,-12 -10,-18 -1,-29c9,-11 9,-20 2,-35c-6,-11 -11,-31 -11,-45c0,-14 -4,-28 -10,-31c-5,-3 -10,-20 -10,-36c0,-23 -7,-34 -30,-47c-16,-9 -30,-21 -30,-25c0,-5 10,-1 22,7c32,23 51,21 43,-4c-6,-19 -4,-18 31,5c36,24 39,25 45,8c4,-10 8,-33 8,-52c1,-33 2,-34 15,-15c16,21 21,15 29,-36c3,-18 5,-14 6,12c1,32 10,47 61,98c34,34 70,60 81,60c15,0 20,6 17,23c-3,19 -10,22 -50,25c-28,2 -59,-3 -77,-12c-47,-25 -61,-21 -62,17c0,47 -21,98 -45,114c-18,12 -23,11 -34,-2z" fill="#aaaaff" id="svg_35"/>
   <path d="m2558,-5583c-45,-37 -98,-110 -98,-136c0,-22 -1,-23 -12,-8c-21,28 -139,62 -138,40c1,-24 89,-133 108,-133c6,0 16,-15 22,-34c16,-50 48,-86 75,-86c36,0 39,16 11,66c-14,26 -26,52 -26,58c0,6 14,-14 31,-44c18,-30 33,-56 34,-58c7,-9 74,29 89,49c24,35 20,57 -19,96c-39,39 -41,43 -20,43c17,0 18,5 16,79c-2,57 -14,91 -34,91c-7,0 -24,-10 -39,-23z" fill="#aaaaff" id="svg_36"/>
   <path d="m7966,-6393c3,-10 9,-15 12,-12c3,3 0,11 -7,18c-10,9 -11,8 -5,-6z" fill="#aaaaff" id="svg_37"/>
   <path d="m1566,-6430c-19,-22 -38,-52 -42,-67c-9,-39 -30,-52 -69,-46c-68,11 -196,-19 -175,-41c3,-3 39,-11 80,-17c45,-8 81,-20 90,-30c24,-27 72,-38 104,-25l28,11l-26,24c-14,14 -26,28 -26,32c0,18 35,17 69,-3c37,-21 40,-21 64,-5c21,14 24,21 18,44c-4,15 -17,32 -28,38c-17,7 -21,16 -17,37c2,15 6,42 9,58c4,26 2,30 -19,30c-15,0 -37,-15 -60,-40z" fill="#aaaaff" id="svg_38"/>
   <path d="m7800,-7648c0,-6 11,-24 24,-39c22,-25 24,-26 19,-6c-6,24 -43,63 -43,45z" fill="#aaaaff" id="svg_39"/>
   <path d="m6190,-7769c0,-6 4,-13 10,-16c6,-3 7,1 4,9c-7,18 -14,21 -14,7z" fill="#aaaaff" id="svg_40"/>
   <path d="m6891,-7775c0,-11 9,-36 19,-55c20,-35 20,-35 14,-5c-4,17 -13,41 -20,55c-12,22 -13,22 -13,5z" fill="#aaaaff" id="svg_41"/>
   <path d="m6930,-7810c6,-11 13,-20 16,-20c2,0 0,9 -6,20c-6,11 -13,20 -16,20c-2,0 0,-9 6,-20z" fill="#aaaaff" id="svg_42"/>
   <path d="m6091,-7926c0,-11 3,-14 6,-6c3,7 2,16 -1,19c-3,4 -6,-2 -5,-13z" fill="#aaaaff" id="svg_43"/>
   <path d="m8600,-8474c0,-2 8,-10 18,-17c15,-13 16,-12 3,4c-13,16 -21,21 -21,13z" fill="#aaaaff" id="svg_44"/>
   <path d="m7580,-8524c0,-2 8,-10 18,-17c15,-13 16,-12 3,4c-13,16 -21,21 -21,13z" fill="#aaaaff" id="svg_45"/>
  </g>
 </g>
</svg>